
  <svg width='624px'
       height='192px'
       viewBox='0 0 624 192'
       xmlns='http://www.w3.org/2000/svg'
       xmlns:xlink="http://www.w3.org/1999/xlink">

    <style type='text/css'>
    .keycap .border { stroke: black; stroke-width: 2; }
    .keycap .inner.border { stroke: rgba(0,0,0,.1); }
    </style>
    <defs>
      <linearGradient id="DCS">
        <stop offset="0%" stop-color="black" stop-opacity="0"/>
        <stop offset="40%" stop-color="black" stop-opacity="0.1"/>
        <stop offset="60%" stop-color="black" stop-opacity="0.1"/>
        <stop offset="100%" stop-color="black" stop-opacity="0"/>
      </linearGradient>
      <linearGradient id="SPACE" x1="0%" x2="0%" y1="0%" y2="100%">
        <stop offset="0%" stop-color="black" stop-opacity="0.1"/>
        <stop offset="20%" stop-color="black" stop-opacity="0.0"/>
        <stop offset="40%" stop-color="black" stop-opacity="0.0"/>
        <stop offset="100%" stop-color="black" stop-opacity="0.1"/>
      </linearGradient>
      <radialGradient id="DSA">
        <stop offset="0%" stop-color="black" stop-opacity="0.1"/>
        <stop offset="10%" stop-color="black" stop-opacity="0.1"/>
        <stop offset="100%" stop-color="black" stop-opacity="0"/>
      </radialGradient>
      <radialGradient id="SA" xlink:href="#DSA" />
    </defs>

    <g transform='translate(10,10)'>
      <rect width="604" height="172"
            stroke="#ddd" stroke-width="1" fill="#ffffff" rx="6"/>
      <g transform='translate(5,5)'>
        
  <g class='  keycap'
  >

  
    <!-- Outer Border -->
    <rect x="1" y="1"
          width="52" height="52"
          rx="5" fill="#dddddd" class="outer border"/>
    
    <!-- Outer Fill -->
    <rect x="1" y="1"
          width="52" height="52"
          rx="5" fill="#dddddd"/>
    

    
      <!-- Inner Border -->
      <rect x="7" y="4"
            width="40" height="40"
            rx="5" fill="#feffff" class="inner border"/>
      
      <!-- Inner Fill -->
      <rect x="7" y="4"
            width="40" height="40"
            rx="5" fill="#feffff"/>
      
      

     
   
  </g>

  <g class='  keycap'
  >

  
    <!-- Outer Border -->
    <rect x="55" y="1"
          width="52" height="52"
          rx="5" fill="#eeeeee" class="outer border"/>
    
    <!-- Outer Fill -->
    <rect x="55" y="1"
          width="52" height="52"
          rx="5" fill="#eeeeee"/>
    

    
      <!-- Inner Border -->
      <rect x="61" y="4"
            width="40" height="40"
            rx="5" fill="#feffff" class="inner border"/>
      
      <!-- Inner Fill -->
      <rect x="61" y="4"
            width="40" height="40"
            rx="5" fill="#feffff"/>
      
      

     
   
  </g>

  <g class='  keycap'
  >

  
    <!-- Outer Border -->
    <rect x="109" y="1"
          width="52" height="52"
          rx="5" fill="#eeeeee" class="outer border"/>
    
    <!-- Outer Fill -->
    <rect x="109" y="1"
          width="52" height="52"
          rx="5" fill="#eeeeee"/>
    

    
      <!-- Inner Border -->
      <rect x="115" y="4"
            width="40" height="40"
            rx="5" fill="#feffff" class="inner border"/>
      
      <!-- Inner Fill -->
      <rect x="115" y="4"
            width="40" height="40"
            rx="5" fill="#feffff"/>
      
      

     
   
  </g>

  <g class='  keycap'
  >

  
    <!-- Outer Border -->
    <rect x="163" y="1"
          width="52" height="52"
          rx="5" fill="#dddddd" class="outer border"/>
    
    <!-- Outer Fill -->
    <rect x="163" y="1"
          width="52" height="52"
          rx="5" fill="#dddddd"/>
    

    
      <!-- Inner Border -->
      <rect x="169" y="4"
            width="40" height="40"
            rx="5" fill="#feffff" class="inner border"/>
      
      <!-- Inner Fill -->
      <rect x="169" y="4"
            width="40" height="40"
            rx="5" fill="#feffff"/>
      
      

     
   
  </g>

  <g class='  keycap'
  >

  
    <!-- Outer Border -->
    <rect x="217" y="1"
          width="52" height="52"
          rx="5" fill="#eeeeee" class="outer border"/>
    
    <!-- Outer Fill -->
    <rect x="217" y="1"
          width="52" height="52"
          rx="5" fill="#eeeeee"/>
    

    
      <!-- Inner Border -->
      <rect x="223" y="4"
            width="40" height="40"
            rx="5" fill="#feffff" class="inner border"/>
      
      <!-- Inner Fill -->
      <rect x="223" y="4"
            width="40" height="40"
            rx="5" fill="#feffff"/>
      
      

     
   
  </g>

  <g class='  keycap'
  >

  
    <!-- Outer Border -->
    <rect x="271" y="1"
          width="52" height="52"
          rx="5" fill="#eeeeee" class="outer border"/>
    
    <!-- Outer Fill -->
    <rect x="271" y="1"
          width="52" height="52"
          rx="5" fill="#eeeeee"/>
    

    
      <!-- Inner Border -->
      <rect x="277" y="4"
            width="40" height="40"
            rx="5" fill="#feffff" class="inner border"/>
      
      <!-- Inner Fill -->
      <rect x="277" y="4"
            width="40" height="40"
            rx="5" fill="#feffff"/>
      
      

     
   
  </g>

  <g class='  keycap'
  >

  
    <!-- Outer Border -->
    <rect x="325" y="1"
          width="52" height="52"
          rx="5" fill="#eeeeee" class="outer border"/>
    
    <!-- Outer Fill -->
    <rect x="325" y="1"
          width="52" height="52"
          rx="5" fill="#eeeeee"/>
    

    
      <!-- Inner Border -->
      <rect x="331" y="4"
            width="40" height="40"
            rx="5" fill="#feffff" class="inner border"/>
      
      <!-- Inner Fill -->
      <rect x="331" y="4"
            width="40" height="40"
            rx="5" fill="#feffff"/>
      
      

     
   
  </g>

  <g class='  keycap'
  >

  
    <!-- Outer Border -->
    <rect x="379" y="1"
          width="52" height="52"
          rx="5" fill="#eeeeee" class="outer border"/>
    
    <!-- Outer Fill -->
    <rect x="379" y="1"
          width="52" height="52"
          rx="5" fill="#eeeeee"/>
    

    
      <!-- Inner Border -->
      <rect x="385" y="4"
            width="40" height="40"
            rx="5" fill="#feffff" class="inner border"/>
      
      <!-- Inner Fill -->
      <rect x="385" y="4"
            width="40" height="40"
            rx="5" fill="#feffff"/>
      
      

     
   
  </g>

  <g class='  keycap'
  >

  
    <!-- Outer Border -->
    <rect x="433" y="1"
          width="52" height="52"
          rx="5" fill="#eeeeee" class="outer border"/>
    
    <!-- Outer Fill -->
    <rect x="433" y="1"
          width="52" height="52"
          rx="5" fill="#eeeeee"/>
    

    
      <!-- Inner Border -->
      <rect x="439" y="4"
            width="40" height="40"
            rx="5" fill="#feffff" class="inner border"/>
      
      <!-- Inner Fill -->
      <rect x="439" y="4"
            width="40" height="40"
            rx="5" fill="#feffff"/>
      
      

     
   
  </g>

  <g class='  keycap'
  >

  
    <!-- Outer Border -->
    <rect x="487" y="1"
          width="52" height="52"
          rx="5" fill="#eeeeee" class="outer border"/>
    
    <!-- Outer Fill -->
    <rect x="487" y="1"
          width="52" height="52"
          rx="5" fill="#eeeeee"/>
    

    
      <!-- Inner Border -->
      <rect x="493" y="4"
            width="40" height="40"
            rx="5" fill="#feffff" class="inner border"/>
      
      <!-- Inner Fill -->
      <rect x="493" y="4"
            width="40" height="40"
            rx="5" fill="#feffff"/>
      
      

     
   
  </g>

  <g class='  keycap'
  >

  
    <!-- Outer Border -->
    <rect x="28" y="55"
          width="52" height="52"
          rx="5" fill="#eeeeee" class="outer border"/>
    
    <!-- Outer Fill -->
    <rect x="28" y="55"
          width="52" height="52"
          rx="5" fill="#eeeeee"/>
    

    
      <!-- Inner Border -->
      <rect x="34" y="58"
            width="40" height="40"
            rx="5" fill="#feffff" class="inner border"/>
      
      <!-- Inner Fill -->
      <rect x="34" y="58"
            width="40" height="40"
            rx="5" fill="#feffff"/>
      
      

     
   
  </g>

  <g class='  keycap'
  >

  
    <!-- Outer Border -->
    <rect x="82" y="55"
          width="52" height="52"
          rx="5" fill="#333333" class="outer border"/>
    
    <!-- Outer Fill -->
    <rect x="82" y="55"
          width="52" height="52"
          rx="5" fill="#333333"/>
    

    
      <!-- Inner Border -->
      <rect x="88" y="58"
            width="40" height="40"
            rx="5" fill="#3d3d3d" class="inner border"/>
      
      <!-- Inner Fill -->
      <rect x="88" y="58"
            width="40" height="40"
            rx="5" fill="#3d3d3d"/>
      
      

     
   
  </g>

  <g class='  keycap'
  >

  
    <!-- Outer Border -->
    <rect x="136" y="55"
          width="52" height="52"
          rx="5" fill="#333333" class="outer border"/>
    
    <!-- Outer Fill -->
    <rect x="136" y="55"
          width="52" height="52"
          rx="5" fill="#333333"/>
    

    
      <!-- Inner Border -->
      <rect x="142" y="58"
            width="40" height="40"
            rx="5" fill="#3d3d3d" class="inner border"/>
      
      <!-- Inner Fill -->
      <rect x="142" y="58"
            width="40" height="40"
            rx="5" fill="#3d3d3d"/>
      
      

     
   
  </g>

  <g class='  keycap'
  >

  
    <!-- Outer Border -->
    <rect x="190" y="55"
          width="52" height="52"
          rx="5" fill="#eeeeee" class="outer border"/>
    
    <!-- Outer Fill -->
    <rect x="190" y="55"
          width="52" height="52"
          rx="5" fill="#eeeeee"/>
    

    
      <!-- Inner Border -->
      <rect x="196" y="58"
            width="40" height="40"
            rx="5" fill="#feffff" class="inner border"/>
      
      <!-- Inner Fill -->
      <rect x="196" y="58"
            width="40" height="40"
            rx="5" fill="#feffff"/>
      
      

     
   
  </g>

  <g class='  keycap'
  >

  
    <!-- Outer Border -->
    <rect x="244" y="55"
          width="52" height="52"
          rx="5" fill="#333333" class="outer border"/>
    
    <!-- Outer Fill -->
    <rect x="244" y="55"
          width="52" height="52"
          rx="5" fill="#333333"/>
    

    
      <!-- Inner Border -->
      <rect x="250" y="58"
            width="40" height="40"
            rx="5" fill="#3d3d3d" class="inner border"/>
      
      <!-- Inner Fill -->
      <rect x="250" y="58"
            width="40" height="40"
            rx="5" fill="#3d3d3d"/>
      
      

     
   
  </g>

  <g class='  keycap'
  >

  
    <!-- Outer Border -->
    <rect x="298" y="55"
          width="52" height="52"
          rx="5" fill="#333333" class="outer border"/>
    
    <!-- Outer Fill -->
    <rect x="298" y="55"
          width="52" height="52"
          rx="5" fill="#333333"/>
    

    
      <!-- Inner Border -->
      <rect x="304" y="58"
            width="40" height="40"
            rx="5" fill="#3d3d3d" class="inner border"/>
      
      <!-- Inner Fill -->
      <rect x="304" y="58"
            width="40" height="40"
            rx="5" fill="#3d3d3d"/>
      
      

     
   
  </g>

  <g class='  keycap'
  >

  
    <!-- Outer Border -->
    <rect x="352" y="55"
          width="52" height="52"
          rx="5" fill="#333333" class="outer border"/>
    
    <!-- Outer Fill -->
    <rect x="352" y="55"
          width="52" height="52"
          rx="5" fill="#333333"/>
    

    
      <!-- Inner Border -->
      <rect x="358" y="58"
            width="40" height="40"
            rx="5" fill="#3d3d3d" class="inner border"/>
      
      <!-- Inner Fill -->
      <rect x="358" y="58"
            width="40" height="40"
            rx="5" fill="#3d3d3d"/>
      
      

     
   
  </g>

  <g class='  keycap'
  >

  
    <!-- Outer Border -->
    <rect x="406" y="55"
          width="52" height="52"
          rx="5" fill="#eeeeee" class="outer border"/>
    
    <!-- Outer Fill -->
    <rect x="406" y="55"
          width="52" height="52"
          rx="5" fill="#eeeeee"/>
    

    
      <!-- Inner Border -->
      <rect x="412" y="58"
            width="40" height="40"
            rx="5" fill="#feffff" class="inner border"/>
      
      <!-- Inner Fill -->
      <rect x="412" y="58"
            width="40" height="40"
            rx="5" fill="#feffff"/>
      
      

     
   
  </g>

  <g class='  keycap'
  >

  
    <!-- Outer Border -->
    <rect x="460" y="55"
          width="52" height="52"
          rx="5" fill="#eeeeee" class="outer border"/>
    
    <!-- Outer Fill -->
    <rect x="460" y="55"
          width="52" height="52"
          rx="5" fill="#eeeeee"/>
    

    
      <!-- Inner Border -->
      <rect x="466" y="58"
            width="40" height="40"
            rx="5" fill="#feffff" class="inner border"/>
      
      <!-- Inner Fill -->
      <rect x="466" y="58"
            width="40" height="40"
            rx="5" fill="#feffff"/>
      
      

     
   
  </g>

  <g class='  keycap'
  >

  
    <!-- Outer Border -->
    <rect x="514" y="55"
          width="52" height="52"
          rx="5" fill="#eeeeee" class="outer border"/>
    
    <!-- Outer Fill -->
    <rect x="514" y="55"
          width="52" height="52"
          rx="5" fill="#eeeeee"/>
    

    
      <!-- Inner Border -->
      <rect x="520" y="58"
            width="40" height="40"
            rx="5" fill="#feffff" class="inner border"/>
      
      <!-- Inner Fill -->
      <rect x="520" y="58"
            width="40" height="40"
            rx="5" fill="#feffff"/>
      
      

     
   
  </g>

  <g class='  keycap'
  >

  
    <!-- Outer Border -->
    <rect x="55" y="109"
          width="52" height="52"
          rx="5" fill="#dddddd" class="outer border"/>
    
    <!-- Outer Fill -->
    <rect x="55" y="109"
          width="52" height="52"
          rx="5" fill="#dddddd"/>
    

    
      <!-- Inner Border -->
      <rect x="61" y="112"
            width="40" height="40"
            rx="5" fill="#feffff" class="inner border"/>
      
      <!-- Inner Fill -->
      <rect x="61" y="112"
            width="40" height="40"
            rx="5" fill="#feffff"/>
      
      

     
   
  </g>

  <g class='  keycap'
  >

  
    <!-- Outer Border -->
    <rect x="109" y="109"
          width="52" height="52"
          rx="5" fill="#dddddd" class="outer border"/>
    
    <!-- Outer Fill -->
    <rect x="109" y="109"
          width="52" height="52"
          rx="5" fill="#dddddd"/>
    

    
      <!-- Inner Border -->
      <rect x="115" y="112"
            width="40" height="40"
            rx="5" fill="#feffff" class="inner border"/>
      
      <!-- Inner Fill -->
      <rect x="115" y="112"
            width="40" height="40"
            rx="5" fill="#feffff"/>
      
      

     
   
  </g>

  <g class='  keycap'
  >

  
    <!-- Outer Border -->
    <rect x="163" y="109"
          width="52" height="52"
          rx="5" fill="#dddddd" class="outer border"/>
    
    <!-- Outer Fill -->
    <rect x="163" y="109"
          width="52" height="52"
          rx="5" fill="#dddddd"/>
    

    
      <!-- Inner Border -->
      <rect x="169" y="112"
            width="40" height="40"
            rx="5" fill="#feffff" class="inner border"/>
      
      <!-- Inner Fill -->
      <rect x="169" y="112"
            width="40" height="40"
            rx="5" fill="#feffff"/>
      
      

     
   
  </g>

  <g class='  keycap'
  >

  
    <!-- Outer Border -->
    <rect x="217" y="109"
          width="52" height="52"
          rx="5" fill="#dddddd" class="outer border"/>
    
    <!-- Outer Fill -->
    <rect x="217" y="109"
          width="52" height="52"
          rx="5" fill="#dddddd"/>
    

    
      <!-- Inner Border -->
      <rect x="223" y="112"
            width="40" height="40"
            rx="5" fill="#feffff" class="inner border"/>
      
      <!-- Inner Fill -->
      <rect x="223" y="112"
            width="40" height="40"
            rx="5" fill="#feffff"/>
      
      

     
   
  </g>

  <g class='  keycap'
  >

  
    <!-- Outer Border -->
    <rect x="271" y="109"
          width="52" height="52"
          rx="5" fill="#dddddd" class="outer border"/>
    
    <!-- Outer Fill -->
    <rect x="271" y="109"
          width="52" height="52"
          rx="5" fill="#dddddd"/>
    

    
      <!-- Inner Border -->
      <rect x="277" y="112"
            width="40" height="40"
            rx="5" fill="#feffff" class="inner border"/>
      
      <!-- Inner Fill -->
      <rect x="277" y="112"
            width="40" height="40"
            rx="5" fill="#feffff"/>
      
      

     
   
  </g>

  <g class='  keycap'
  >

  
    <!-- Outer Border -->
    <rect x="325" y="109"
          width="52" height="52"
          rx="5" fill="#dddddd" class="outer border"/>
    
    <!-- Outer Fill -->
    <rect x="325" y="109"
          width="52" height="52"
          rx="5" fill="#dddddd"/>
    

    
      <!-- Inner Border -->
      <rect x="331" y="112"
            width="40" height="40"
            rx="5" fill="#feffff" class="inner border"/>
      
      <!-- Inner Fill -->
      <rect x="331" y="112"
            width="40" height="40"
            rx="5" fill="#feffff"/>
      
      

     
   
  </g>

  <g class='  keycap'
  >

  
    <!-- Outer Border -->
    <rect x="379" y="109"
          width="52" height="52"
          rx="5" fill="#dddddd" class="outer border"/>
    
    <!-- Outer Fill -->
    <rect x="379" y="109"
          width="52" height="52"
          rx="5" fill="#dddddd"/>
    

    
      <!-- Inner Border -->
      <rect x="385" y="112"
            width="40" height="40"
            rx="5" fill="#feffff" class="inner border"/>
      
      <!-- Inner Fill -->
      <rect x="385" y="112"
            width="40" height="40"
            rx="5" fill="#feffff"/>
      
      

     
   
  </g>

  <g class='  keycap'
  >

  
    <!-- Outer Border -->
    <rect x="433" y="109"
          width="52" height="52"
          rx="5" fill="#dddddd" class="outer border"/>
    
    <!-- Outer Fill -->
    <rect x="433" y="109"
          width="52" height="52"
          rx="5" fill="#dddddd"/>
    

    
      <!-- Inner Border -->
      <rect x="439" y="112"
            width="40" height="40"
            rx="5" fill="#feffff" class="inner border"/>
      
      <!-- Inner Fill -->
      <rect x="439" y="112"
            width="40" height="40"
            rx="5" fill="#feffff"/>
      
      

     
   
  </g>

  <g class='  keycap'
  >

  
    <!-- Outer Border -->
    <rect x="487" y="109"
          width="52" height="52"
          rx="5" fill="#eeeeee" class="outer border"/>
    
    <!-- Outer Fill -->
    <rect x="487" y="109"
          width="52" height="52"
          rx="5" fill="#eeeeee"/>
    

    
      <!-- Inner Border -->
      <rect x="493" y="112"
            width="40" height="40"
            rx="5" fill="#feffff" class="inner border"/>
      
      <!-- Inner Fill -->
      <rect x="493" y="112"
            width="40" height="40"
            rx="5" fill="#feffff"/>
      
      

     
   
  </g>

  <g class='  keycap'
  >

  
    <!-- Outer Border -->
    <rect x="541" y="109"
          width="52" height="52"
          rx="5" fill="#eeeeee" class="outer border"/>
    
    <!-- Outer Fill -->
    <rect x="541" y="109"
          width="52" height="52"
          rx="5" fill="#eeeeee"/>
    

    
      <!-- Inner Border -->
      <rect x="547" y="112"
            width="40" height="40"
            rx="5" fill="#feffff" class="inner border"/>
      
      <!-- Inner Fill -->
      <rect x="547" y="112"
            width="40" height="40"
            rx="5" fill="#feffff"/>
      
      

     
   
  </g>

      </g>
    </g>
  </svg>
